<svg width="16" height="16" viewBox="0 0 16 16" fill="none" xmlns="http://www.w3.org/2000/svg">
<path d="M8.42873 3.25725L9.76116 1.03654L13.1965 1.46595L14.5 3.63849V6.32062L8.01449 14.1959L1.93878 6.2507L1.05633 4.04458L2.34555 1.89588L5.35443 0.606363L7.61587 3.32009L8.06654 3.86089L8.42873 3.25725Z" fill="white" stroke="white"/>
<path d="M7.9 3.0948C6.6998 -2.52108 -2.59121 1.90389 1.76035 7.60175C6.11191 13.2996 8.40001 15.4908 8.40001 15.4908" stroke="white"/>
<path d="M7.89413 3.0948C9.09434 -2.52108 18.7304 1.90389 14.3788 7.60175C10.0273 13.2996 7.7 15.5 7.7 15.5" stroke="white"/>
<path d="M7.39098 2.70752L8.40429 2.70757L8.38335 3.24079H7.39098V2.70752Z" fill="white"/>
</svg>
